<?xml version="1.0" encoding="iso-8859-1"?>
<!-- Generator: Adobe Illustrator 18.1.1, SVG Export Plug-In . SVG Version: 6.00 Build 0)  -->
<svg xmlns="http://www.w3.org/2000/svg" xmlns:xlink="http://www.w3.org/1999/xlink" version="1.1" id="Capa_1" x="0px" y="0px" viewBox="0 0 478.165 478.165" style="enable-background:new 0 0 478.165 478.165;" xml:space="preserve" width="40px" height="40px">
<g>
	<path id="WordPress_2_" d="M0,239.082c0,132.093,106.989,239.082,239.082,239.082s239.082-106.989,239.082-239.082   S371.175,0,239.082,0S0,106.989,0,239.082z M18.449,239.082c0-31.957,6.814-62.361,19.107-89.855L142.712,437.6   C69.155,401.997,18.449,326.407,18.449,239.082z M239.082,459.596c-21.697,0-42.537-2.949-62.341-8.886l66.266-192.382   l67.879,185.827c0.458,1.235,0.996,2.152,1.514,3.128C289.449,455.292,264.764,459.596,239.082,459.596z M417.418,234.898   c12.612-31.519,16.815-56.583,16.815-78.957c0-8.149-0.518-15.68-1.454-22.812c17.254,31.519,26.837,67.62,26.837,105.953   c0,81.348-44.011,152.335-109.48,190.608L417.418,234.898z M369.84,167.119c8.368,14.584,18.21,33.631,18.21,60.807   c0,18.907-5.618,42.796-16.835,71.386l-21.976,73.378l-79.774-237.05c13.409-0.677,25.223-2.072,25.223-2.072   c12.014-1.395,10.599-18.888-1.375-18.21c0,0-35.623,2.809-58.735,2.809c-21.717,0-58.117-2.809-58.117-2.809   c-11.894-0.697-13.289,17.473-1.534,18.21c0,0,11.336,1.375,23.251,2.072l34.348,94.159l-48.295,144.764l-80.332-238.923   c13.309-0.717,25.203-2.092,25.203-2.092c11.934-1.395,10.52-18.888-1.395-18.23c0,0-35.703,2.809-58.834,2.809   c-4.144,0-9.045-0.04-14.166-0.239c39.409-59.95,107.328-99.438,184.372-99.438c57.44,0,109.739,21.936,148.968,57.918   c-0.916-0.06-1.873-0.239-2.809-0.239c-21.836,0-36.978,18.907-36.978,39.19C348.243,133.547,358.663,148.928,369.84,167.119z" fill="#FFFFFF"/>
</g>
<g>
</g>
<g>
</g>
<g>
</g>
<g>
</g>
<g>
</g>
<g>
</g>
<g>
</g>
<g>
</g>
<g>
</g>
<g>
</g>
<g>
</g>
<g>
</g>
<g>
</g>
<g>
</g>
<g>
</g>
</svg>
